<?xml version="1.0" encoding="utf-8"?>
<!-- Generator: Adobe Illustrator 19.0.0, SVG Export Plug-In . SVG Version: 6.00 Build 0)  -->
<svg version="1.1" id="Слой_1" xmlns="http://www.w3.org/2000/svg" xmlns:xlink="http://www.w3.org/1999/xlink" x="0px" y="0px"
	 viewBox="0 0 300 300" style="enable-background:new 0 0 300 300;" xml:space="preserve">
<style type="text/css">
	.st0{fill:#A098E2;stroke:#000000;stroke-width:3;stroke-linecap:round;stroke-miterlimit:10;}
	.st1{fill:#FFFFFF;stroke:#000000;stroke-miterlimit:10;}
	.st2{fill:none;stroke:#000000;stroke-miterlimit:10;}
		.st0,.st1,.st2{
        animation:draw 1.5s linear forwards .5s;
        stroke-dasharray: 1000;
        stroke-dashoffset: 1000;
	}
	@keyframes draw {
	to {
    stroke-dashoffset: 0;
    }
}
</style>
<path id="XMLID_1_" class="st0" d="M149.5,28.5c3.5,0.9,8,1.4,10.5-1c3.9-3.7-0.6-11.1,3-14.5c3.2-3,10.3-0.4,18,2.5
	c9,3.4,14,5.3,15.5,9.5c2,5.7-4.2,10.6-11.5,21.5c-5.9,8.8-17.3,25.9-15.5,42.5c1,9.7,5.6,10.2,14,27.5c3.7,7.5,6.6,17.5,12.5,37.5
	c9,30.5,15.5,57.5,15.5,57.5c4.3,17.7,4,18.3,6,22.5c10,20.7,27.6,26.2,25.5,35c-0.8,3.1-6.2,5.8-17,11c-13.3,6.4-20,9.7-26.5,7.5
	c-4.9-1.6-6.5-4.9-14-6.5c-1.9-0.4-5.1-1.1-9-0.5c-8.2,1.2-9,7.8-14.5,8c-6.5,0.2-8.7-8.6-14.6-7.8c-5.1,0.6-5.4,7.4-10.4,7.8
	c-5,0.4-6.4-6.4-14.5-8c-3.4-0.7-6.2-0.1-9,0.5c-7.5,1.6-9.1,4.9-14,6.5c-6.5,2.2-13.2-1.1-26.5-7.5c-10.8-5.2-16.2-7.9-17-11
	c-2.1-8.8,15.5-14.3,25.5-35c2-4.2,1.7-4.8,6-22.5c0,0,6.5-27,15.5-57.5c5.9-20,8.8-30,12.5-37.5c8.4-17.3,13-17.8,14-27.5
	c1.8-16.6-9.6-33.7-15.5-42.5c-7.3-10.9-13.5-15.8-11.5-21.5c1.5-4.2,6.5-6.1,15.5-9.5c7.7-2.9,14.8-5.5,18-2.5
	c3.6,3.4-0.9,10.8,3,14.5C141.5,29.8,146,29.3,149.5,28.5"/>
<path id="XMLID_3_" class="st1" d="M112,18.7c-1,3.4,3.7,5.2,6.7,13.7c2.4,6.7,0.4,8.5,2.7,12c4.3,6.7,18.3,10.5,25,3.7
	c4.8-4.8,5.2-14.3,1.3-17.7c-3.5-3.1-8.1,0.9-13-2.3c-5.4-3.5-3-10.4-8-13.3C121.8,11.8,113.3,14.6,112,18.7z"/>
<path id="XMLID_4_" class="st1" d="M188.3,17.6c1,3.4-3.7,5.2-6.7,13.7c-2.4,6.7-0.4,8.5-2.7,12c-4.3,6.7-18.3,10.5-25,3.7
	c-4.8-4.8-5.2-14.3-1.3-17.7c3.5-3.1,8.1,0.9,13-2.3c5.4-3.5,3-10.4,8-13.3C178.5,10.8,187.1,13.6,188.3,17.6z"/>
<path id="XMLID_5_" d="M132,90c3.2-2,6,1.9,12,0.7c3.2-0.7,3.8-2,7-2c2.8,0,3,1.1,6,1.7c5.9,1.1,8.5-2.2,11.7-0.3
	c1.9,1.1,3.3,3.8,2.7,5.3c-1,2.4-6,0-13,3c-3.6,1.5-4.3,3.1-7,3c-3.1-0.1-3.8-2.1-7.3-3.7c-6.9-3.1-12.9,0.9-14.3-1.7
	C128.7,94.4,130,91.3,132,90z"/>
<path id="XMLID_6_" class="st2" d="M130,147c-3,20.8-4.9,37.5-6,49c-1,10.7-1.8,16.5-3.3,28c-2.2,16.6-3.3,22.1-5.7,28.3
	c-3.6,9.6-8.5,16.7-12,21"/>
<path id="XMLID_7_" class="st2" d="M145.7,112.3c1.5,10.7,3.2,25.4,4,43c0.7,16.3,1.5,35.2-1.7,59.3c-1.5,11.8-4.4,27.8-10,46.3"/>
<path id="XMLID_8_" class="st2" d="M165.3,160c2.5,12.4,4.6,26.5,5.7,42c0.8,12,1,23.1,0.7,33.3"/>
<path id="XMLID_9_" class="st2" d="M167.3,112c1.2,10.3,3.2,24.9,6.7,42.3c3.7,18.6,7.3,32.1,12.7,51.7c3.9,14.2,9.3,33.1,16.3,55.3
	"/>
<path id="XMLID_10_" class="st2" d="M135.3,73c0.5,2.7,1.1,5.6,2,8.7c0.8,2.9,1.7,5.6,2.7,8"/>
<line id="XMLID_12_" class="st2" x1="163" y1="73" x2="161" y2="88.7"/>
<polyline id="XMLID_11_" class="st2" points="163,63.7 169.3,63.7 176,58.7 "/>
<path id="XMLID_13_" class="st2" d="M127,62.3c0.7,0.9,2.3,2.8,5,4c2.1,0.9,3.9,1,5,1"/>
</svg>
