<?xml version="1.0" encoding="utf-8"?>
<!-- Generator: Adobe Illustrator 19.0.0, SVG Export Plug-In . SVG Version: 6.00 Build 0)  -->
<svg version="1.1" id="Слой_1" xmlns="http://www.w3.org/2000/svg" xmlns:xlink="http://www.w3.org/1999/xlink" x="0px" y="0px"
	 viewBox="0 0 300 300" style="enable-background:new 0 0 300 300;" xml:space="preserve">
<style type="text/css">
	.st0{fill:#D4E843;stroke:#201600;stroke-width:4;stroke-linecap:round;stroke-miterlimit:10;}
	.st1{fill:none;stroke:#201600;stroke-width:2;stroke-linecap:round;stroke-miterlimit:10;}
	.st0,.st1{
        animation:draw 1.5s linear forwards .5s;
        stroke-dasharray: 1000;
        stroke-dashoffset: 1000;
	}
	@keyframes draw {
	to {
    stroke-dashoffset: 0;
    }
}
</style>
<path id="XMLID_2_" class="st0" d="M149,32.6c-2.6-0.2-6.7-0.4-11.7,0.5c-2.9,0.5-13.1,2.3-13.7,6.6c-0.4,2.4,2.5,3.5,2,5.6
	c-0.7,2.9-6.6,2.9-12.7,5.1c0,0-6.8,2.4-13.7,9.1C95.5,63.2,94,66.6,87.6,90c-5.5,20.2-2.9,12.1-7.1,27.4
	c-1.7,6.3-3.9,13.9-4.6,24.4c-0.7,10.6,0.8,13.5,2.5,15.2c3.8,3.7,10.7,3.8,15.2,1.5c7.2-3.5,9.1-12.8,10-17.3
	c0.5-2.2,0.2-2.3,1.3-8.8c0.8-5.4,2-11.6,2.4-11.6c0.8,0.1-6.6,22.3,3.6,33c4,4.2,9.5,5.7,16.8,7.6c4.2,1.1,12.7,3.4,15.2,0
	c0,0,0.5-0.7,1.1-7.7c0,0-0.1-0.4-0.1-0.4c1.7-0.1,3.4-0.3,5-0.4"/>
<path id="XMLID_3_" class="st0" d="M150.4,32.6c2.6-0.2,6.7-0.4,11.7,0.5c2.9,0.5,13.1,2.3,13.7,6.6c0.4,2.4-2.5,3.5-2,5.6
	c0.7,2.9,6.6,2.9,12.7,5.1c0,0,6.8,2.4,13.7,9.1c3.8,3.7,5.3,7.1,11.7,30.5c5.5,20.2,2.9,12.1,7.1,27.4c1.7,6.3,3.9,13.9,4.6,24.4
	c0.7,10.6-0.8,13.5-2.5,15.2c-3.8,3.7-10.7,3.8-15.2,1.5c-7.2-3.5-9.1-12.8-10-17.3c-0.5-2.2-0.2-2.3-1.3-8.8
	c-0.8-5.4-2-11.6-2.4-11.6c-0.8,0.1,6.6,22.3-3.6,33c-4,4.2-9.5,5.7-16.8,7.6c-4.2,1.1-12.7,3.4-15.2,0c0,0-0.5-0.7-1.1-7.7
	c0,0,0.1-0.4,0.1-0.4c-1.7-0.1-3.4-0.3-5-0.4"/>
<polyline id="XMLID_5_" class="st1" points="79.6,157.9 78,166.3 91,169 92.6,159 "/>
<polyline id="XMLID_6_" class="st1" points="207.3,160.8 208.8,169 223.7,166.3 221.5,157.9 "/>
<path id="XMLID_4_" class="st1" d="M103.5,59.3c1.2,4,2.3,8.2,3.3,12.8c3.7,18.4,3.1,34.8,1.3,47.8"/>
<path id="XMLID_7_" class="st1" d="M196.5,59.3c-1.2,4-2.3,8.2-3.3,12.8c-3.7,18.4-3.1,34.8-1.3,47.8"/>
<polyline id="XMLID_8_" class="st1" points="127.5,45.5 142.3,66.3 142.3,150.8 "/>
<polyline id="XMLID_9_" class="st1" points="173,45.3 158.3,66 158.3,150.5 "/>
</svg>
