<?xml version="1.0" encoding="utf-8"?>
<!-- Generator: Adobe Illustrator 19.0.0, SVG Export Plug-In . SVG Version: 6.00 Build 0)  -->
<svg version="1.1" id="Слой_1" xmlns="http://www.w3.org/2000/svg" xmlns:xlink="http://www.w3.org/1999/xlink" x="0px" y="0px"
	 viewBox="0 0 300 300" style="enable-background:new 0 0 300 300;" xml:space="preserve">
<style type="text/css">
	.st0{fill:#EA9C68;stroke:#000000;stroke-miterlimit:10;stroke-width:5;}
	.st1{fill:none;stroke:#000000;stroke-miterlimit:10;}
	.st2{fill:#7A998E;stroke:#000000;stroke-miterlimit:10;}
	.st0,.st1,.st2{
        animation:draw 1.5s linear forwards .5s;
        stroke-dasharray: 1000;
        stroke-dashoffset: 1000;
	}
	@keyframes draw {
	to {
    stroke-dashoffset: 0;
    }
}
	
</style>

<path class="st0" d="M118.5,102c-3.5,2.5-7.1,8.4-5.5,24l-2.5,105.5v48H143l7-119.5l8,119.5h33.5l-4-152c1-16.6-3.1-22.9-7-25.5
	c-6.7-4.5-12.8,1.5-30.5,1.5C131.8,103.5,125,97.3,118.5,102z"/>
<path class="st1" d="M116.8,108.5c6.5,2.8,17.4,6.4,31.3,6.8c15.5,0.4,27.7-3.7,34.5-6.5"/>
<path class="st1" d="M119.4,102.3c6,2.5,15.9,5.9,28.6,6.2c14.2,0.3,25.3-3.4,31.5-5.9"/>
<path class="st1" d="M150.3,159.5c0.5-1.7,0.9-4.1,0-6.5c-1.4-3.7-5.3-5.1-4.8-7.3c0.2-1,1.1-1.1,2-3c0.5-1,0.7-1.9,0.8-2.5
	c0-10.2-0.1-20.3-0.1-30.5"/>
<ellipse class="st1" cx="153.1" cy="111.8" rx="2.1" ry="2"/>
<path class="st2" d="M125,104.8c-0.8,0.4-1.1,1.1-1.6,2.5c-0.7,2-1.4,3.8-0.4,5c0.8,0.9,2.3,1.2,3.3,0.7c0.7-0.4,0.6-1,1.3-3.1
	c0.9-2.6,1.6-3,1.3-3.8C128.3,104.8,126.3,104.1,125,104.8z"/>
<path class="st2" d="M174.8,103.8c1.1,0.5,1.4,1.6,2,3.6c0.6,1.9,0.9,3,0.3,3.9c-0.5,0.8-1.6,1.3-2.6,1.1c-1.1-0.3-1.6-1.5-2.3-3.3
	c-0.7-2-1.4-3.8-0.5-4.8C172.5,103.6,173.8,103.4,174.8,103.8z"/>
</svg>
