<?xml version="1.0" encoding="utf-8"?>
<!-- Generator: Adobe Illustrator 21.0.1, SVG Export Plug-In . SVG Version: 6.00 Build 0)  -->
<svg version="1.1" id="Слой_1" xmlns="http://www.w3.org/2000/svg" xmlns:xlink="http://www.w3.org/1999/xlink" x="0px" y="0px"
	 viewBox="0 0 300 300" style="enable-background:new 0 0 300 300;" xml:space="preserve">
<style type="text/css">
	.st0{fill:none;stroke:#000000;stroke-width:2;stroke-miterlimit:10;}
	.st1{fill:none;stroke:#000000;stroke-miterlimit:10;}
	.st2{fill:#45DEE5;stroke:#000000;stroke-width:0.25;stroke-miterlimit:10;}
	.st0{
		animation:draw 4.5s linear forwards;
        stroke-dasharray: 1704;
        stroke-dashoffset: 1704;
	}

	@keyframes draw {
	0%{
	stroke-dashoffset: 1704;	
	}
	100% {
    stroke-dashoffset: 0;
    }
	}

</style>
<g>
	<path class="st0" d="M65,100.7c-2.4,2.3-1.5,4.7-3.3,12c-2.5,9.9-6.3,13.6-10,21.3c-5.6,11.5-6.2,22.1-6.7,29
		c-1.3,20.4,5.2,33.5,3.7,41.2c-0.1,0.6-0.6,3,0.6,4.2c1.2,1.2,3.5,0.6,4.7,0.3c3.8-0.7,6.5,0.7,13.3,3.3c9,3.5,18.3,6.3,27.3,9.7
		c17,6.3,32.4,6.5,45.3,6.7c20.1,0.3,26.2-3.4,37.3,1c1.8,0.7,6.7,2.8,8.3,1c1.8-1.9-1.6-6.4-3-11.7c-2.2-8.5,2.6-11.6,7.3-28
		c4.5-15.7,4.9-29.4,5-33.7c0.2-7.8-0.6-7.4,0-12.3c1.7-15.3,9.4-24.6,6.7-27c-1.3-1.1-3.3,0.8-8,1c-6.7,0.3-11.7-3-14-4.3
		c-5.9-3.4-16.5-4.7-37.7-7.3c-31.4-3.9-29.2,1.3-47.7-3C80.2,100.7,70.1,95.7,65,100.7z"/>
	<path class="st0" d="M202.7,124.3c-0.2,4-0.5,10.1-0.7,17.7c-0.2,11,0,14.7-0.7,21.3c-0.8,7.4-2.2,12.7-3.7,18.3
		c-4,15.2-7.2,18.7-9,30.3c-0.9,5.7-1,10.4-1,13.3"/>
	<path class="st1" d="M69.7,105.7c1.8,1.7,3.9,3.5,6.3,5.3c3.1,2.3,6.1,4,8.7,5.3"/>
	<path class="st1" d="M67,109c0.3,1.8,1.3,5.5,4.3,8.7c1.1,1.2,2.3,2.1,3.3,2.7"/>
	<path class="st1" d="M194.3,125.3c-3.6,1.7-7.1,3.3-10.7,5"/>
	<path class="st1" d="M195,129.3c-1.5,1.6-3.3,3.6-5,6.3c-1.4,2.2-2.3,4.2-3,6"/>
	<path class="st1" d="M52.3,203c0.4-1.6,0.7-3.4,1-5.3c0.6-4.5,0.6-8.6,0.3-12"/>
	<path class="st1" d="M55.7,202.3c1.2-1.8,2.4-3.7,3.7-5.7c0.9-1.5,1.8-2.9,2.7-4.3"/>
	<path class="st1" d="M176,221.3c-2.6-2.5-5.8-5.1-9.7-7.7c-1.7-1.1-3.4-2.1-5-3"/>
	<path class="st1" d="M180.3,222.7c-2.3-3.8-4.7-7.6-7-11.3"/>
	<path class="st0" d="M192.7,202.3c11.5,0.8,20.5-0.3,26.3-1.3c10.3-1.9,23.4-5.9,36.7-10c8.9-2.8,14.3-4.7,20-2.7
		c1.4,0.5,4.6,1.9,5.7,0.7c1-1.1-0.4-4-0.7-4.7c-0.8-1.8-1.9-2.9-2-3c-4.6-4.8,0-24.7,0-24.7c3.5-15,0.8-30.4-2.7-40
		c-2.3-6.2-8.2-19.3-11.3-27.3c-1.7-4.4-2.6-6.7-2.7-9c-0.1-1.9,0.1-3.3-0.7-3.8c-1.3-0.8-4,1.6-6.3,3.2c-3.6,2.4-7.3,3.1-14.7,4.3
		c-10.8,1.9-18,0.1-33.7,0.3c-5.4,0.1-16.8,0.3-31,2.7c-7.9,1.3-11,2.3-19,3c-10.1,0.8-15.2,1.3-20,0.3c-4.2-0.8-8.5-2.3-9.7-0.7
		c-0.8,1.2,0.8,2.8,1,6c0.2,3.1-0.9,5.8-2,7.7"/>
	<path class="st0" d="M253.3,78c-2.4,0.1-6,0.2-10.3,0c-8-0.3-12-1.1-16.3-1.5c-8.1-0.8-9.1,0.7-27,2.5c-16,1.6-13.8,0.3-22.3,1.7
		c-10.9,1.8-14.4,3.9-26.3,5.7c-6.4,0.9-11.6,1.2-15,1.3"/>
	<path class="st1" d="M135,93.7c2.8,1.6,6.1,3.2,10,4.7c2.7,1,5.3,1.8,7.7,2.3"/>
	<path class="st1" d="M257.7,82.7c-0.2,1.7-0.7,3.6-1.3,5.7c-1.7,5.1-4.3,8.9-6.3,11.3"/>
	<path class="st1" d="M271.7,182.3c-1.9,0-5.5-0.4-9.3-2.3c-3.3-1.7-5.5-3.9-6.7-5.3"/>
	<path class="st1" d="M259,163.7c1.6,2,3.3,4.2,5.3,6.3c2.3,2.5,4.5,4.7,6.7,6.7"/>
	<path class="st1" d="M270.3,164.3c0.7,2.1,1.4,4.4,2,6.7c0.5,1.7,0.9,3.4,1.3,5"/>
	<path class="st2" d="M33.5,186.8c-0.7,1.1-0.1,1.7,0.8,7.5c0.4,3.1,0.4,4,1.3,4.5c1.1,0.6,1.9-0.5,5-1c0,0,0.9-0.2,7,0
		c-0.1,3,0.2-6.1-0.5-9c-0.4-1.9-0.6-2.8-1.5-3.5c-1.3-1.1-3-0.9-5.8-0.5C36.1,185.2,34.3,185.5,33.5,186.8z"/>
	<path class="st2" d="M265.3,90.9c-0.3,1.2,0.4,1.6,3,6.9c1.3,2.8,1.6,3.7,2.6,3.9c1.2,0.3,1.7-1,4.5-2.5c0,0,0.8-0.4,6.7-2.1
		c0.9,2.9-1.7-5.8-3.2-8.4c-1-1.6-1.5-2.5-2.5-2.9c-1.6-0.6-3.2,0.1-5.6,1.3C267.3,88.6,265.7,89.4,265.3,90.9z"/>
</g>
</svg>
