<?xml version="1.0" encoding="utf-8"?>
<!-- Generator: Adobe Illustrator 19.0.0, SVG Export Plug-In . SVG Version: 6.00 Build 0)  -->
<svg version="1.1" id="Слой_1" xmlns="http://www.w3.org/2000/svg" xmlns:xlink="http://www.w3.org/1999/xlink" x="0px" y="0px"
	 viewBox="0 0 300 300" style="enable-background:new 0 0 300 300;" xml:space="preserve">
<style type="text/css">
	.st0{fill:#381D1D;stroke:#201600;stroke-width:4;stroke-miterlimit:10;}
	.st1{fill:none;stroke:#201600;stroke-miterlimit:10;}
	.st2{stroke:#201600;stroke-miterlimit:10;}
	.st0,.st1,.st2{
        animation:draw 1.5s linear forwards .5s;
        stroke-dasharray: 1000;
        stroke-dashoffset: 1000;
	}
	@keyframes draw {
	to {
    stroke-dashoffset: 0;
    }
}
</style>
<path class="st0" d="M121.8,153.3c-1.8,0.6-4.2,2-8.3,8c-4.5,6.6-6,11.4-8.8,18c-5.3,12.8-8,19.2-12.8,24.8c-3.6,4.1-6.5,8.8-10,13
	c-1.8,2.2-4.4,5.3-3.5,7c0.8,1.4,3.4,0.6,6.3,2.8c1.3,1,1.8,2,2.5,3c2.7,4,6.7,6.2,8.8,7.3c5.5,3,14.6,4.8,21,1.5
	c1.2-0.6,2.4-1.4,4.3-1.5c3.5-0.1,5.7,2.6,8,4.3c2.9,2.1,9.1,2,21.5,1.8c11.3-0.2,13.8-1.2,15.8-3c1.6-1.5,2-2.8,4-3.5
	c3.3-1.2,5.2,1.4,10.3,2.3c1.7,0.3,8.3,1.2,13.3-2.3c3.6-2.5,3.6-5.5,7.3-6.5c2.2-0.6,3.2,0.2,5.8-0.8c0.6-0.2,4-1.4,4.8-3.5
	c1.3-3.6-5.8-8.1-11-14.5c-5.1-6.4-3.9-9.3-9-23.3c-5.9-16.2-11.4-31.5-21.8-33.8c-3.5-0.8-2.9,0.9-14.3,1.8
	c-7.2,0.5-12.4,0.9-19-0.3C128.2,154.3,126.2,151.7,121.8,153.3z"/>
<path class="st1" d="M112.8,166.8c-1,2.6-2.4,6.4-4.3,11c-9.3,23.7-12.6,30.3-15.3,35c-1.5,2.6-3.7,6.5-6.8,11"/>
<path class="st1" d="M135,158.5c-1.2,4.1-2.9,10.3-4.8,18c-2.4,10.3-3.7,17.5-4.5,22c-1.6,8.8-4.5,21.6-9.8,38"/>
<path class="st1" d="M135.8,160.3c-0.4,2.6-1.1,6.6-2,11.5c-1.9,10-2.5,10.6-3,15.3c-0.7,7,0.5,7.8-0.3,16c-0.5,5.4-1.1,7-1.8,11.5
	c-0.7,5-1.2,12.2,0,21.5"/>
<path class="st1" d="M158.3,160.5c0.1,3.2,0.4,7.8,0.8,13.3c0.7,10,1.6,17.4,2.3,23.5c1.5,12.6,2.9,25.3,4.5,38.8"/>
<path class="st1" d="M160.3,161.5c0.9,2.6,2.1,6.6,3.3,11.5c2.3,10.1,2.8,17.8,3,20.3c0.6,8,2.6,20.6,8.8,40.8"/>
<path class="st1" d="M168.8,156.8c2.4,2.7,5.9,7,9,12.8c5.2,9.4,6.6,17.3,8,23.3c1.9,8.3,5.5,20,12.5,34.3"/>
<path class="st2" d="M122.5,144.8c-0.1,1,8.3,2.6,10.3,3c17.6,3.4,34.6-0.2,34.5-1.8C167.1,143.5,122.7,142.4,122.5,144.8z"/>
<path class="st1" d="M122.1,144.3c0.3,2.3,0.5,4.5,0.8,6.8"/>
<line class="st1" x1="167.3" y1="145.7" x2="167.3" y2="154.3"/>
</svg>
