<?xml version="1.0" encoding="utf-8"?>
<!-- Generator: Adobe Illustrator 19.0.0, SVG Export Plug-In . SVG Version: 6.00 Build 0)  -->
<svg version="1.1" id="Слой_1" xmlns="http://www.w3.org/2000/svg" xmlns:xlink="http://www.w3.org/1999/xlink" x="0px" y="0px"
	 viewBox="0 0 300 300" style="enable-background:new 0 0 300 300;" xml:space="preserve">
<style type="text/css">
	.st0{fill:#60B24B;stroke:#201600;stroke-width:4;stroke-miterlimit:10;}
	.st1{fill:#FFFFFF;stroke:#201600;stroke-miterlimit:10;}
	.st2{fill:none;stroke:#201600;stroke-miterlimit:10;}
	.st0,.st1,.st2{
        animation:draw 1.5s linear forwards .5s;
        stroke-dasharray: 1000;
        stroke-dashoffset: 1000;
	}
	@keyframes draw {
	to {
    stroke-dashoffset: 0;
    }
}
</style>
<path class="st0" d="M149,37.8c6.3-1.4,12.7-2.9,19-4.3c1,2.8,2.8,6.5,6.3,9c4.7,3.3,8.3,1.7,15.3,3.3c1.5,0.3,11,2.7,18.3,10.7
	c2.2,2.4,7.6,9,9,18c0.5,3.2,0.3,5.2,1.7,9c1.7,4.8,3.4,5,5.3,9.7c1.4,3.5,4,8.9,1.7,12.7c-0.5,0.9-1.5,1.5-3.3,2.8
	c-0.4,0.3-4.6,3.2-8.2,4.5c-8.1,2.9-18.3-0.6-19.5-1l1.7,66.3l-47.3,3.8l-47.3-4l1.7-66.3c-8.5,5.8-18.3,6.7-24.7,2.3
	c-1-0.7-4.9-3.6-6.3-8.7c-1.4-5.2,0.5-9.9,1.7-12.7c1.9-4.7,3.6-4.9,5.3-9.7c1.4-3.8,1.2-5.8,1.7-9c1.4-9,6.8-15.6,9-18
	c7.3-8,16.9-10.3,18.3-10.7c7-1.6,10.7-0.1,15.3-3.3c3.6-2.5,5.4-6.2,6.3-9c6.3,1.4,12.7,2.9,19,4.3"/>
<path class="st1" d="M198.7,110.2c-0.7-2.5,8-6.8,10.2-7.8c1.1-0.5,12.3-6,14.7-3c1.2,1.5-0.5,4.6-0.8,5.3c-2.1,3.9-6.2,5.2-8.8,6
	C207.6,112.6,199.3,112.5,198.7,110.2z"/>
<path class="st2" d="M194.2,108.8c1.6-2.1,3.9-4.5,7-6.7c8.3-5.8,17.1-6.2,21-6.2"/>
<path class="st2" d="M95.8,55.2c0.5,1.7,1.2,4.2,2,7.2c2,7.4,2.2,8.9,2.3,9.8c0.5,4.6-0.4,5,0,9.2c0.5,5.1,2.2,6.9,3.3,11
	c1,3.5,1.7,8.8-0.3,16.2"/>
<polyline class="st2" points="198.6,53 197.7,62.3 195.2,70.8 194.2,82.5 194.2,96 192.2,108.5 "/>
<path class="st2" d="M95.3,87.5c2.7,4.5,5.4,9,8.2,13.5"/>
<path class="st2" d="M195,84.7c1.9-2.8,3.8-5.7,5.7-8.5"/>
<path class="st2" d="M195,92.7c1.1,1.5,2.2,3,3.3,4.5"/>
<path class="st1" d="M99.4,113.4c0.7-2.5-8-6.8-10.2-7.8c-1.1-0.5-12.3-6-14.7-3c-1.2,1.5,0.5,4.6,0.8,5.3c2.1,3.9,6.2,5.2,8.8,6
	C90.4,115.8,98.7,115.8,99.4,113.4z"/>
<path class="st2" d="M75.3,96.7c3.5,0.2,9.1,1,15.3,4c4.9,2.4,8.5,5.4,10.7,7.7"/>
</svg>
