<?xml version="1.0" encoding="utf-8"?>
<!-- Generator: Adobe Illustrator 21.0.1, SVG Export Plug-In . SVG Version: 6.00 Build 0)  -->
<svg version="1.1" id="Слой_1" xmlns="http://www.w3.org/2000/svg" xmlns:xlink="http://www.w3.org/1999/xlink" x="0px" y="0px"
	 viewBox="0 0 128 128" style="enable-background:new 0 0 128 128;" xml:space="preserve">
<style type="text/css">
	.st0{fill:none;stroke:#94979B;stroke-width:8;stroke-miterlimit:10;}
	.st1{fill:none;stroke:#94979B;stroke-width:8;stroke-miterlimit:10;}
	.st2{fill:none;stroke:#94979B;stroke-width:8;stroke-miterlimit:10;}
	.st3{fill:none;stroke:#94979B;stroke-width:4;stroke-miterlimit:10;}
	.st4{fill:none;stroke:#94979B;stroke-width:4;stroke-miterlimit:10;}
	.st5{fill:none;stroke:#94979B;stroke-width:4;stroke-miterlimit:10;}
</style>
<path class="st0" d="M95.1,112.1h-49c-11.9,0-21.7-9.8-21.7-21.7v0c0-11.9,9.8-21.7,21.7-21.7h49c11.9,0,21.7,9.8,21.7,21.7v0
	C116.8,102.4,107,112.1,95.1,112.1z"/>
<path class="st1" d="M91.7,65.7H48.1c-8.3,0-15.2-6.8-15.2-15.2v0c0-8.3,6.8-15.2,15.2-15.2h43.6c8.3,0,15.2,6.8,15.2,15.2v0
	C106.9,58.8,100.1,65.7,91.7,65.7z"/>
<path class="st2" d="M84.3,32.6h-29c-7.2,0-13.1-5.9-13.1-13.1v0c0-7.2,5.9-13.1,13.1-13.1h29c7.2,0,13.1,5.9,13.1,13.1v0
	C97.3,26.7,91.5,32.6,84.3,32.6z"/>
<path class="st3" d="M80.1,22.8H59.6c-2.1,0-3.8-1.7-3.8-3.8v0c0-2.1,1.7-3.8,3.8-3.8h20.5c2.1,0,3.8,1.7,3.8,3.8v0
	C83.9,21,82.2,22.8,80.1,22.8z"/>
<path class="st4" d="M84.6,55h-28c-2.1,0-3.8-1.7-3.8-3.8v-2c0-2.1,1.7-3.8,3.8-3.8h28c2.1,0,3.8,1.7,3.8,3.8v2
	C88.4,53.3,86.7,55,84.6,55z"/>
<path class="st5" d="M90.9,97.5H54.3c-4.4,0-8.1-3.6-8.1-8.1v0c0-4.4,3.6-8.1,8.1-8.1h36.6c4.4,0,8.1,3.6,8.1,8.1v0
	C99,93.9,95.4,97.5,90.9,97.5z"/>
</svg>
