<?xml version="1.0" encoding="utf-8"?>
<!-- Generator: Adobe Illustrator 21.0.1, SVG Export Plug-In . SVG Version: 6.00 Build 0)  -->
<svg version="1.1" id="Слой_1" xmlns="http://www.w3.org/2000/svg" xmlns:xlink="http://www.w3.org/1999/xlink" x="0px" y="0px"
	 viewBox="0 0 128 128" style="enable-background:new 0 0 128 128;" xml:space="preserve">
<style type="text/css">
	.st0{fill:none;stroke:#94979B;stroke-width:8;stroke-miterlimit:10;}
	.st1{fill:none;stroke:#94979B;stroke-miterlimit:10;}
	.st2{fill:none;stroke:#94979B;stroke-width:4;stroke-linejoin:round;stroke-miterlimit:10;}
</style>
<path class="st0" d="M63.7,101.7c-25,2-32.3-2-34.2-6.3c-2.7-6.4,4.2-18.9,12.3-33.8c3.4-6.2,5.8-9.7,4.7-14
	c-1.7-6.5-9-6.3-12.8-14.8c-0.3-0.7-3.9-8.9,0-14.3c1.4-1.9,3.4-3.1,8.7-4.5c4.9-1.3,12.2-2.7,21.7-2.3h0.4c9.4-0.3,16.8,1,21.7,2.3
	c5.3,1.4,7.3,2.6,8.7,4.5c3.9,5.4,0.3,13.7,0,14.3c-3.8,8.5-11.1,8.4-12.8,14.8c-1.1,4.3,1.2,7.8,4.7,14
	c8.2,14.9,15.1,27.5,12.3,33.8c-1.8,4.3-9.2,8.3-34.2,6.3H63.7z"/>
<path class="st1" d="M54.3,9.5C56,11,58.8,8.2,64.5,8c5.8-0.2,8.8,2.6,10.3,1c1.1-1.2,0.8-3.8-0.5-5.3c-0.9-1.1-2.2-1.5-9.5-1.4
	C56.6,2.4,55.3,2.9,54.5,4C53.3,5.6,53.1,8.4,54.3,9.5z"/>
<polygon class="st2" points="58.3,109 58.3,118.2 41.3,118.2 41.3,125 86.8,125 86.8,118.2 67.5,118.2 67.5,109 "/>
</svg>
