<?xml version="1.0" encoding="utf-8"?>
<!-- Generator: Adobe Illustrator 21.0.1, SVG Export Plug-In . SVG Version: 6.00 Build 0)  -->
<svg version="1.1" id="Слой_1" xmlns="http://www.w3.org/2000/svg" xmlns:xlink="http://www.w3.org/1999/xlink" x="0px" y="0px"
	 viewBox="0 0 450 450" style="enable-background:new 0 0 450 450;" xml:space="preserve">
<style type="text/css">
	.st0{fill:none;stroke:#000000;stroke-miterlimit:10;}
	.st0{
		animation:draw 4.5s linear forwards;
        stroke-dasharray: 1704;
        stroke-dashoffset: 1704;
	}

	@keyframes draw {
	0%{
	stroke-dashoffset: 1704;	
	stroke-width:8;
	}
	100% {
    stroke-dashoffset: 0;
	stroke-width:0.24;
    }
	}
</style>
<path class="st0" d="M8.3,360.3c1.7,0.9,3.1-0.2,7-0.7c3.8-0.4,6.9,0.1,9,0.7c2.8,2.2,5.9,5.3,8.3,9.7c1.8,3.3,4.7,8.5,3.3,14
	c-0.6,2.4-1.4,2.5-1.7,4.7c-0.4,3.1,0.9,6.5,4.7,11c2.3,2.7,15.8,18.7,28.3,15.3c4.2-1.1,4-3.2,9.3-5c6.3-2.1,10.9-0.6,17.3,0.3
	c20.4,3,29.6-3.6,34.7,2.7c3,3.7,2.2,8.7,5.3,9.5c2.2,0.6,3.4-1.6,7-2.9c5.6-1.9,8.4,1.5,14,1.3c7.4-0.2,9-6.3,17.7-10.3
	c7.1-3.4,13.5-2.7,20.7-2.3c15.9,0.9,31.8-1.1,47.7,0c24.9,1.8,91.1,4.8,183,9l2-38l13.7-1v-9c0.5-10.9,2.1-51.4,2-83.3
	c0-15.4-0.4-12.3-0.3-23c0.1-14,0.8-22.1-1.7-34.3c-0.6-2.9-1-5-2-8c-3.3-10-7.3-13.2-15-26c-5.9-9.8-4.5-9.7-8-14
	c-1.5-1.9-6.6-8-17.3-14c-18-10-34.5-10.1-35-16c-0.2-2.6,2.8-5.3,1.3-7.7c-0.9-1.4-2.3-0.9-3.7-2.3c-2.6-2.7,0.3-6.6-1.7-9.7
	c-2.2-3.4-9.5-4.4-12-1.7c-2.9,3.1,1,10.5-1.7,12c-1.3,0.7-3-0.6-4,0.3c-1.1,1.1,0.5,3.2-0.3,4.3c-1.8,2.5-13.8-0.3-16-6.7
	c-0.8-2.4,0.2-3.9-1-5c-2.6-2.3-9.2,2.4-11,0.3c-0.9-1.1,0.6-2.7-0.3-4c-1.3-1.9-5.8,0.4-11.7,0.7c-7.3,0.3-16.3-2.8-18-8
	c-0.8-2.4,0.3-4-1-5.3c-1.7-1.7-4.6-0.3-9.3,0c-5.6,0.4-14.3-0.6-16-4.7c-1-2.5,1.2-4.5-0.3-6.7c-1.4-2-4.9-2.5-6-1.3
	c-1.1,1.2,0.9,3.4,0,4.7c-1.8,2.6-14.8,0.1-19.3-8c-2.7-4.7-1.8-10.3-3-10.3c-1.2-0.1-1.1,5.8-4.7,7.7c-3.2,1.7-8.7-0.2-10.7-3.7
	c-1.6-2.9,0.4-5,1-11.3c0.3-3.3,0.6-10.8-3-18c-1-1.9-3.6-7-9.3-10.7c-1.9-1.2-8.2-5.1-16-3.7c-2.1,0.4-6.2,1.1-9,4.3
	c-1.8,2.1-1.4,3.2-4,10c-3,7.9-4.4,8.9-5.3,9.3c-1.9,1-3,0.2-7.3,0c-1.9-0.1-2.3,0.1-12,1.3c-9.6,1.3-11.7,1.5-13,0
	c-0.9-1.1-0.4-1.9-0.7-5.3c-0.6-8.1-4.1-10-2.7-13.7c1.4-3.6,5.7-3.6,5.7-6c0-2.7-5.5-4.6-7.7-5.3c-3.2-1.1-9.4-3.2-13.3,0
	c-1.5,1.2-3,3.5-2.7,5.7c0.4,2.4,2.6,2.3,4,5c1.7,3.3,0.4,7.5-1,12c-1.1,3.6-1.8,3.8-2.3,6.7c-0.8,4.3,0.6,5.5,0,7.7
	C112,88.8,103,87.3,93.7,93c-1.5,0.9-12.2,7.5-14.3,18.3c-1.3,6.8,1.5,11.1-2,15.7c-2.7,3.5-5.7,2.4-7,5.7c-1.4,3.4,1.4,5.7,1.3,14
	c0,2.4-0.3,3.7-1,5c-1.4,2.5-3.4,2.3-5.3,4.3c-2.1,2.2-1.1,3.8-2.7,9.7c-1.8,7-4,7.8-3.3,11.3c0.5,2.5,2.2,5.5,5,6.3
	c3.5,1,7-1.9,8.3-3c3.5-2.9,4.2-6.2,5-6c1.3,0.3,0.4,8.2,0,14c-0.5,7.2,0.4,16.8,2,36c1,11.9,1.6,15.5,2.3,18.7
	c2.2,10.1,3.3,15.1,7.3,18.7c1.6,1.4,3.9,2.9,5,6c1.2,3.5-0.6,4.9,0.3,7c2.4,5.6,17.7,0.6,21.3,6.7c2,3.4-2,6,0,14
	c0.7,2.9,1,4.5,1.7,7.7c0.7,3.3,0.9,4.9,0,6c-1.1,1.4-2.8,0.7-4.3,1.7c-3.2,2-3.2,9.6-0.7,15.3c3.3,7.4,9.6,8.9,9,11.3
	c-0.8,2.9-10.6,2.4-20,2.7c-17.1,0.4-15.1,2.9-33.3,4c-30.7,1.9-46.1,2.8-53,2.7c-1.8,0-6.1-0.1-8.3,2.7
	C4.5,352.5,5.4,358.8,8.3,360.3z"/>
<path class="st0" d="M96.3,269c5.1,0,12.5-0.3,21.3-1.7c14.4-2.3,21.7-3.4,27-8.7c3.3-3.3,4-6.1,9.7-28c5.7-22.1,5.6-21.6,5.7-22
	c2.8-13.4,2.7-20.3,3.7-57c0.9-31.9,1.3-36.3-1.3-45c-4.1-13.6-11.3-23.5-16.5-29.5"/>
<path class="st0" d="M257.7,343.7c0.4-1.5-4.9-2.7-6.3-7.7c-1.5-5.5,3.2-10.3,1-12.7c-1.2-1.4-3.1-0.2-5-1c-5.5-2.3-3-17.4-3.3-29.3
	c0,0-0.6-19.7-10.7-37c-8.3-14.2-24.4-29.3-34-25.7c-5.3,2-3.4,7.8-12,20.3c-5,7.4-11.7,17-22.3,19.7c-5.1,1.2-5.5-0.4-21,0.3
	c-11.8,0.6-13.6,1.7-14.7,2.7c-4.6,4.2-1.9,11.3-1,25c1.7,24.4-4.6,33.2,1.3,38c3.9,3.2,8.1,0.5,23.3-1c11-1.1,18.8-0.7,31.3,0
	c10.7,0.6,21.2,2.3,42.3,5.7C241.3,343.4,256.9,346.1,257.7,343.7z"/>
<path class="st0" d="M339.7,355c4.6-2.3,10.8-6.4,15-13.3c6.3-10.4,4.1-20.9,2.3-36.7c-4.5-40.5,2.1-40.1-3.3-52.7
	c-5.5-12.6-20.5-21.2-50.7-38.3c-31.8-18.1-56-24.9-70.3-28c-3.4-0.8-6.3-1.3-8.3-1.7"/>
</svg>
