<?xml version="1.0" encoding="utf-8"?>
<!-- Generator: Adobe Illustrator 21.0.1, SVG Export Plug-In . SVG Version: 6.00 Build 0)  -->
<svg version="1.1" id="Слой_1" xmlns="http://www.w3.org/2000/svg" xmlns:xlink="http://www.w3.org/1999/xlink" x="0px" y="0px"
	 viewBox="0 0 450 450" style="enable-background:new 0 0 450 450;" xml:space="preserve">
<style type="text/css">
	.st0{fill:none;stroke:#000000;stroke-miterlimit:10;}
	.st0{
		animation:draw 4.5s linear forwards;
        stroke-dasharray: 1704;
        stroke-dashoffset: 1704;
	}

	@keyframes draw {
	0%{
	stroke-dashoffset: 1704;	
	stroke-width:8;
	}
	100% {
    stroke-dashoffset: 0;
	stroke-width:0.24;
    }
	}
</style>
<g id="JUKI">
	<path class="st0" d="M87,137c-3.3,0.2-9.3,1.1-13.5,5.5c-3.7,3.9-4.4,8.9-5,18C67.5,177.2,68,187,68,187
		c1.7,31.7,2.6,47.5,2.5,57.5c0,6.3-0.2,13.5,4.5,17.5c5.1,4.4,11.6,1.2,15.5,6c2.4,3,2.1,7.1,1.5,14.5c-0.6,7.5-2.1,8.1-2.5,14
		c-0.3,4.9-0.9,14.4,5,18.5c5.1,3.5,14.3,2.4,17-2.5c1-1.9,1.4-4.8,0-7c-2.4-3.8-7.9-1.7-10.5-5c-2.3-2.9,0.6-6.2,1.5-14.5
		c1.2-11.4-3.1-15.5,0-19.5c3.3-4.2,8.5-0.3,15-3.5c12.9-6.3,7.7-29.6,19-34c6.8-2.6,12.8,4.2,18,0c3.1-2.5,4.5-7.8,3-11.5
		c-1.4-3.3-4.5-3.7-4.5-5.5c0.1-3.5,13-5.8,14-6c30.2-5.2,41.1-0.9,67-4c11.5-1.4,17.8-3.2,24,1c6.1,4.1,7.6,11.2,9.5,20
		c1.6,7.6,2.9,18.7,1,56c-0.2,4.1-0.3,5.6,0.5,7.5c3.7,8.9,18.4,10.9,53.5,11.5c58.5,1.1,64.3-3.6,66.5-8c3.6-7.1,0.9-19.7-1.5-30.5
		c-2.1-9.8-4.8-14.8-2-18c4.3-5.1,15.7,1.4,21.5-5c2-2.2,3.1-5.6,2-7c-2.5-3.1-13.3,6.4-20,2.5c-5.2-3-6.4-13.3-3-20.5
		c0.5-1,3.2-6.6,9.5-9c7.2-2.8,11,1.8,17,0c8.6-2.6,11.8-15.2,14-23.5c1.9-7.3,4.9-19-0.5-31.5c-1.9-4.3-6.7-15.6-18-18.5
		c-0.6-0.2-10.8-2.6-18.5,3c-4.8,3.5-5.2,7.5-8.5,8c-2.6,0.4-6.6-1.5-12.5-11.5l-190.5,5V99h-5.5v35H134l-5-19l-16.5-0.5l-2.5,22
		l-6.5-1.5l-0.5-26.5L87.5,109L87,137z"/>
	<polyline class="st0" points="268.4,281.1 25.5,313 25.5,323.5 31.5,323.5 33,327.5 45.5,327.5 60,335.5 61.5,340 67.9,346 86,346 
		405.5,297.5 405.5,292.5 393,286 	"/>
</g>
</svg>
