<?xml version="1.0" encoding="utf-8"?>
<!-- Generator: Adobe Illustrator 21.0.1, SVG Export Plug-In . SVG Version: 6.00 Build 0)  -->
<svg version="1.1" id="Слой_1" xmlns="http://www.w3.org/2000/svg" xmlns:xlink="http://www.w3.org/1999/xlink" x="0px" y="0px"
	 viewBox="0 0 1000 916" style="enable-background:new 0 0 1000 916;" xml:space="preserve">
<style type="text/css">
	.st0{fill:none;stroke:#000000;stroke-width:2;stroke-miterlimit:10;}
	.st0{
		animation:draw 4.5s linear forwards;
        stroke-dasharray: 3604;
        stroke-dashoffset: 3604;
	}

	@keyframes draw {
	0%{
	stroke-dashoffset: 3604;	
	stroke-width:8;
	}
	100% {
    stroke-dashoffset: 0;
	stroke-width:0.24;
    }
	}
</style>
<path class="st0" d="M243.7,471.7c-2.8-3.9-7.3-7.6-9.3-15.3c-0.7-2.5-2.8-10.4,0.7-16.7c3.6-6.4,11.6-8.4,30-10.7
	c24.5-3,38-3.3,38-3.3c47.4-0.9,71.1-1.4,78.7,1.3c5.7,2.1,17.8,7.1,28,2c4.8-2.4,7.2-6.1,8-7.3c5.7-9,4.4-22.8-2-26.7
	c-4.3-2.6-7.7,1.2-12-1.3c-7.1-4.2-8.3-21.2-1.3-27.3c5.4-4.7,13.7-1.3,15.3-5.3c0.3-0.7,0.7-2.4-4-9.3c-5.8-8.7-8.1-8.4-10.7-13.3
	c-3.5-6.6-4-15.5,0-21.3c0.6-0.9,3.2-4.7,6.7-4.7c1.8,0,3.7,1.1,8,6.7c6,7.7,7,11.5,8,11.3c3-0.6-1.5-38.4-3.3-54
	c-2-16.4,0.2-33.4-4.4-49.3c-0.5-1.7-1.8-5.7-0.2-10.1c2.4-6.9,8.8-5.8,12.7-12c5-8.1-3.6-13.4,0-29.3c0.7-3.2,2.1-7.4,0-9.3
	c-2.1-1.9-5.5,0.6-8-1.3c-3.1-2.4-3.1-10,0-12c3.3-2.1,7.5,3.8,14,2c4.4-1.2,5.7-4.8,8-4c2.3,0.8,3.1,5.4,2.7,8.7
	c-0.4,2.9-1.6,3.6-2.7,6.7c-1.1,3.1-1,6.1-0.7,12c0.4,8.2,0.7,12.2,2.7,14c2.8,2.5,5.3,0.3,10,3.3c3.5,2.3,2.9,4,6,5.3
	c4.2,1.8,7.1-0.6,9.3,1.3c2,1.7,1.5,5.4,1.3,7.3c-1.6,15.9,8.7,21.1,4.7,31.3c-2.6,6.6-7.6,6.5-8.7,13.3c-0.9,5.6,1.7,10.3,2.7,12
	c4.5,8.1,12.7,11.4,18,13.3c11.9,4.5,22.4,3.9,40,2.7c10.4-0.7,9.3-1.2,19.3-2c27.5-2.1,41.3,1.5,42.7-2.7c1.1-3.2-5.8-8.5-9.3-10.7
	c-7-4.4-14.1-4.6-14-5.3c0.1-1,13.2,3,21.3-3.3c4.2-3.3,5.5-8.1,8-17.3c2.6-9.7,3.3-20.7,3.3-20.7l0,0c0,0,7.3-4.3,8.7-10
	c1-4.4-2.4-5.9-1.3-10c1.2-4.5,6.5-7.2,10-8c6.7-1.6,14.6,1.4,17.3,6.7c2.1,4.1-0.6,6,1.3,11.3c2.3,6.5,6.8,5.6,10,12
	c3.5,7.1-1.2,9.9,2.7,17.3c2.4,4.6,5.4,5.8,6,10.7c0.6,4.4-1.7,5.5-0.7,7.3c2.7,4.9,19.3-3.3,38,2.7c2.5,0.8,6.6,2.1,6.7,4
	c0.1,4.5-24.1,8.3-24,8.7c0.1,0.3,16.7-4.3,36-4.7c14.8-0.3,31.1-0.6,42,9.3c7.6,6.9,9.2,15.6,12,32.7c6.3,38,0.7,72.7,0.7,72.7
	c-0.8,4.8-2.8,16.4,0,30.7c0.7,3.7,3.7,18.5,10,19.3c3.3,0.4,4.2-3.5,10.7-8c9.8-6.9,21.1-7.2,28-7.3c2.5-0.1,9.7-0.2,14.7,1.3
	c18,5.7,21.9,39,28,90.7c0,0,3.1,26.3-4.7,62.7c-0.8,3.5-2.1,9.1-6.7,13.3c-8.4,7.7-23.9,7.7-35.3,3.3c-10.9-4.2-17.3-12.2-22.7-9.3
	c-2.9,1.6-3.5,5.2-7.3,6c-1.9,0.4-4.1,0-7.3-2c-9.6-6-11.3-15.7-13.3-15.3c-4.5,0.7,6.8,48.9-0.5,74.7c-0.6,2.2-2.4,8-0.2,14
	c2.4,6.4,7.1,7.1,13.3,13.3c8.2,8.2,12.3,19,13.3,27.3c1.1,8.7-1.7,8.9-1.3,20.7c0.5,15.4,5.5,18.3,3.3,24.7
	c-3.8,11.2-23,14.1-35.3,16c-22.4,3.4-41.5-0.8-49.3-2.7c-13.2-3.1-15.2-5.5-27.3-7.3c-15.1-2.3-26.6-0.9-34,0
	c-77.4,8.9-116.1,13.4-132.1,10.1c-1.6-0.3-8.2-1.8-10.6,1.2c-2.9,3.7,3.2,10.4,0.7,15.3c-2.9,5.6-14.6,4.8-17.3,4.7
	c-33.4-1.9-66.6,7.5-100,9.3c0,0-8.2,0.4-52.7,0c-12.9-0.1-22.3-0.4-30.7-6.7c-5.8-4.4-6-7.9-14-24c-11.2-22.6-25.6-45-26.7-46.7
	c-5.3-8.2-7-10.2-8.7-15.3c-2.1-6.3-1.1-8-0.7-32c0.3-18.4-0.2-22.7,3.3-28c1.3-2,3.1-4,3.3-7.3c0.3-5.7-4.5-9.6-7.3-13.3
	c-5.6-7.4-4.7-16.3-4-28.7c2.6-45.8-3.4-41.4,0.6-76.7C247.8,492.5,250.6,481.3,243.7,471.7z"/>
</svg>
