<?xml version="1.0" encoding="utf-8"?>
<!-- Generator: Adobe Illustrator 21.0.1, SVG Export Plug-In . SVG Version: 6.00 Build 0)  -->
<svg version="1.1" id="Слой_1" xmlns="http://www.w3.org/2000/svg" xmlns:xlink="http://www.w3.org/1999/xlink" x="0px" y="0px"
	 viewBox="0 0 450 450" style="enable-background:new 0 0 450 450;" xml:space="preserve">
<style type="text/css">
	.st0{fill:none;stroke:#000000;stroke-miterlimit:10;}
</style>
<path class="st0" d="M228,370.7c-0.3-10.9-0.7-28.8-1-51c-1.1-93.2,2.9-84.8,0.3-122c-0.9-13.2-5.1-67.2,0.3-78.7
	c0.3-0.7,2.1-4.2,0.7-6.3c-1.8-2.7-7-1.4-11-1.3c-14.3,0.1-27.7-15.5-32.7-27c-2.6-6-5.1-11.8-4.7-19.3c0.2-2.6,0.6-3.9-0.3-5
	c-2.8-3.3-12.6,2.5-28.7,8c-19.5,6.6-36.7,9.7-36.7,9.7c-11.7,2.1-19.1,2.3-21,7c-1.6,3.9,1.7,8.5,3.7,11.7c13.2,21.3,9.3,48.4,7,65
	c-1.6,11.2-2.8,19.2-9.3,26.7c-1.7,2-10.2,11.7-22.3,12.3c-9.8,0.5-15.7-5.1-20.3-1.7c-2.8,2.1-3,5.8-3.3,10.3
	c-2.3,29.6-3.4,44.5-6.8,54.9c-1.1,3.5-2.4,6.6-0.9,8.4c2.9,3.5,12.1-1.5,26.7-6c21.2-6.6,29.4-4.7,54-10c5.8-1.3,11.8-1.6,17.7-2.7
	c3.5-0.7,5.5-1.1,6-0.3c1.1,1.8-7.2,8.6-13,13.3c-61.6,50.4-58.4,50-64.3,53c-0.9,0.4-2.5,1.2-3.7,3c-3.5,5.2,1.5,12.4,11,32.3
	c8.8,18.5,13.2,27.8,13.3,33.3c0,1.4,0,3.3,1.3,4.7c4.8,4.8,20.8-5.3,32-10.3c9.9-4.5,26.5-5.2,59.7-6.7c60.6-2.7,90.9-4,101.3-0.7
	c1,0.3,3.7,1.3,6,0c5.9-3.3,2-17.4,2.3-36.3c0.2-10.4,1.5-12.1,3.7-28c5.3-38.8,2.6-66.3,4-66.3c1.5-0.1,3.8,30.3,4.7,41
	c2.7,34.9,4.1,52.3,3.3,60c-0.4,4,0,8.4,0.7,17.3c0.4,5.7,0.9,8,2.7,9.7c3.3,3,8.9,1.3,14,0.3c1.4-0.3-0.2,0.1,29.7,0.7
	c27.1,0.5,28.4,0.2,33.3,1.7c2.3,0.7,3.5,1.2,5,0.7c7.4-2.4,5.3-21.6,6-49.7c1.2-45.4,1.8-68.2,6.3-80c1.2-3.3,5-12.5,1-17.3
	c-3-3.6-8.3-2.5-13-3.3c-17.2-3.1-25.4-32.9-26.3-36.3c-5.3-19.9-3.8-49.8,8-75.3c2.9-6.2,7.5-14.6,4-21.3
	c-2.3-4.5-6.2-4.4-21.3-11.7c-13.6-6.5-16.4-9.3-19.7-7.7c-3.7,1.9-3.1,6.9-5.7,20.7c-3,16.2-6.4,24-6.3,24
	c0.2,0,16.7-37.3,4.7-48.3c-3.7-3.3-6.1-0.7-22.7-5.3c-11.9-3.3-14.3-5.7-20-4.7c-7.6,1.4-8.4,6.8-16,11.3
	c-15.1,9-27.8-2.4-35.7,4.7c-7.2,6.4-0.6,19.4,0.8,46.3c0.8,14.9-0.7,21.5-2.2,40c-1.5,18.1-1.7,32.1,0.3,149.3
	c0.3,15.9,0.6,34.7,1,55.7"/>
</svg>
