<?xml version="1.0"?>
<svg xmlns="http://www.w3.org/2000/svg" xmlns:xlink="http://www.w3.org/1999/xlink" width="512" height="512" viewBox="0 0 128 128"><defs><linearGradient id="a" x1="120.305" y1="131.386" x2="7.695" y2="18.776" gradientUnits="userSpaceOnUse"><stop offset="0" stop-color="#979fef"/><stop offset="1" stop-color="#ff8fb8"/></linearGradient></defs><path d="M52.562,15.746A1.751,1.751,0,0,1,54.312,14H58.25a1.75,1.75,0,1,1,0,3.5H54.312A1.751,1.751,0,0,1,52.562,15.746ZM115.5,89.379v23.934h5.157a7.342,7.342,0,1,1,0,14.684H7.343a7.342,7.342,0,1,1,0-14.684H12.5V95.379a1.75,1.75,0,0,1,3.5,0v17.934h96V91.129H24.062a1.75,1.75,0,1,1,0-3.5h57.4V49.62A12.46,12.46,0,0,0,69.02,37.175H53.712a7.453,7.453,0,0,0-7.445,7.445,6.76,6.76,0,0,1-5.457,6.623A11.537,11.537,0,0,1,31.158,61v7.617a1.75,1.75,0,0,1-3.5,0V61.051a11.54,11.54,0,0,1-9.968-9.808,6.76,6.76,0,0,1-5.457-6.623V29.941a15.958,15.958,0,0,1,10.3-14.893V6.719a6.719,6.719,0,1,1,13.438,0V14H43.25a1.75,1.75,0,1,1,0,3.5H28.179A12.46,12.46,0,0,0,15.733,29.941V44.62a3.254,3.254,0,0,0,3.25,3.25H39.517a3.254,3.254,0,0,0,3.25-3.25A10.958,10.958,0,0,1,53.712,33.675H69.02A15.964,15.964,0,0,1,84.966,49.62V87.629H112V29.941A12.459,12.459,0,0,0,99.555,17.5H69.312a1.75,1.75,0,0,1,0-3.5H92.031V6.719a6.719,6.719,0,1,1,13.438,0v8.427A15.96,15.96,0,0,1,115.5,29.941v4.735h4.75a7.759,7.759,0,0,1,7.75,7.75V70.5a7.759,7.759,0,0,1-7.75,7.75H115.5ZM99.555,14a15.893,15.893,0,0,1,2.414.2V6.719a3.219,3.219,0,1,0-6.438,0V14Zm-73.524.162A16.015,16.015,0,0,1,28.179,14h4.29V6.719a3.219,3.219,0,0,0-6.438,0ZM37.245,51.37H21.255a8.044,8.044,0,0,0,7.837,6.279h.316A8.044,8.044,0,0,0,37.245,51.37Zm83.412,65.443H7.343a3.842,3.842,0,1,0,0,7.684H120.657a3.842,3.842,0,1,0,0-7.684ZM115.5,38.176V74.75h4.75a4.255,4.255,0,0,0,4.25-4.25V42.426a4.255,4.255,0,0,0-4.25-4.25ZM93.216,63.252H103.75a1.75,1.75,0,0,0,0-3.5H93.216a1.75,1.75,0,0,0,0,3.5Zm0-8.939H103.75a1.75,1.75,0,0,0,0-3.5H93.216a1.75,1.75,0,0,0,0,3.5Zm0-8.94H103.75a1.75,1.75,0,0,0,0-3.5H93.216a1.75,1.75,0,0,0,0,3.5Zm0-8.938H103.75a1.75,1.75,0,0,0,0-3.5H93.216a1.75,1.75,0,0,0,0,3.5ZM91.466,74.91a6.226,6.226,0,0,1,6.219-6.22H99.28a6.22,6.22,0,1,1,0,12.439H97.685A6.226,6.226,0,0,1,91.466,74.91Zm3.5,0a2.722,2.722,0,0,0,2.719,2.719H99.28a2.72,2.72,0,1,0,0-5.439H97.685A2.722,2.722,0,0,0,94.966,74.91Z" fill="url(#a)"/></svg>
