<?xml version="1.0" encoding="utf-8"?>
<!-- Generator: Adobe Illustrator 21.0.1, SVG Export Plug-In . SVG Version: 6.00 Build 0)  -->
<svg version="1.1" id="Слой_1" xmlns="http://www.w3.org/2000/svg" xmlns:xlink="http://www.w3.org/1999/xlink" x="0px" y="0px"
	 viewBox="0 0 250 250" style="enable-background:new 0 0 250 250;" xml:space="preserve">
<style type="text/css">
	.st0{fill:#DBDDFF;}
	.st1{fill:#3E4952;}
	.st2{fill:#64717C;}
	.st3{fill:#2F353A;}
	.st4{fill:#898DC0;}
	.st5{fill:#B1B3F3;}
	.st6{fill:#3E4950;}
	.st7{fill:#293035;}
	.st8{fill:none;stroke:#FFFFFF;stroke-width:2;stroke-miterlimit:10;}
</style>
<g>
	<path class="st0" d="M36.3,184.2l88.8-50.7l35.8,20.7c-29.3,17.1-58.6,34.1-87.8,51.2C60.8,198.3,48.5,191.2,36.3,184.2z"/>
	<path class="st1" d="M36.3,89.5V146c12.3,6.5,24.5,13,36.8,19.5c0-18.3,0-36.5,0-54.8L36.3,89.5z"/>
	<path class="st2" d="M36.3,89.5l36.1-20.7l36,20.7c-11.8,7.1-23.6,14.2-35.3,21.3C60.8,103.7,48.5,96.6,36.3,89.5z"/>
	<polygon class="st3" points="73,110.8 108.3,89.5 108.3,145.2 73,165.5 	"/>
	<polygon class="st0" points="73,68 168.7,13.5 205,34.2 109.2,89.5 	"/>
	<polygon class="st4" points="73,205.3 160.8,154.8 160.8,95.5 120,119 109.2,144.7 109.5,89.8 205,35.3 205,155 73,231.7 	"/>
	<path class="st5" d="M37,184.2c12,7.1,24,14.1,36,21.2c0.2,8.8,0.5,17.6,0.7,26.3L37,210.8V184.2z"/>
	<polygon class="st5" points="125,117.2 160.8,96.7 160.8,154.2 125,133.5 	"/>
	<polygon class="st6" points="36.3,212 73,232.7 73,236.3 36.3,215.7 	"/>
	<polygon class="st7" points="73,232.7 205,156 205,160.5 73,236.3 	"/>
	<path class="st2" d="M196.7,92.5c0,8.1-6.6,17.9-14.7,21.8c-8.1,4-14.7,0.6-14.7-7.5S173.9,89,182,85S196.7,84.4,196.7,92.5z"/>
	<path class="st3" d="M199.3,95.8c0,8.1-6.6,17.9-14.7,21.8c-8.1,4-14.7,0.6-14.7-7.5s6.6-17.9,14.7-21.8
		C192.8,84.4,199.3,87.7,199.3,95.8z"/>
	<path class="st8" d="M193.6,98.6c0,4.9-4,10.9-8.9,13.3s-8.9,0.4-8.9-4.6s4-10.9,8.9-13.3S193.6,93.7,193.6,98.6z"/>
	<polygon class="st2" points="169.2,133.3 200.2,116.5 200.2,128.4 169.2,145.1 	"/>
	<path class="st2" d="M205.6,43.7c-1.1,0.4-0.4,4.4,0,7c0.7,5,1.2,12.3,0,22c1.3-0.1,4-0.6,6-2.7c2.2-2.4,2.1-5.5,2-9.3
		c-0.1-1.7-0.4-6.9-3.7-12.3C209.6,47.8,206.8,43.2,205.6,43.7z"/>
</g>
</svg>
