<?xml version="1.0" encoding="utf-8"?>
<!-- Generator: Adobe Illustrator 21.0.1, SVG Export Plug-In . SVG Version: 6.00 Build 0)  -->
<svg version="1.1" id="Слой_1" xmlns="http://www.w3.org/2000/svg" xmlns:xlink="http://www.w3.org/1999/xlink" x="0px" y="0px"
	 viewBox="0 0 128 128" style="enable-background:new 0 0 128 128;" xml:space="preserve">
<style type="text/css">
	.st0{fill:none;stroke:#94979B;stroke-width:8;stroke-miterlimit:10;}
	.st1{fill:none;stroke:#94979B;stroke-width:4;stroke-miterlimit:10;}
</style>
<g>
	<path class="st0" d="M64,116c10.3-0.7,18.6-0.2,24.4,0.5c9,1,13.5,2.5,16.1-0.3c2.8-2.9,1.6-8.4-0.3-17.4c-1.9-9-3.2-8.5-3.9-14.1
		c-0.9-7.5,0.8-14.2,2.8-21.6c2.2-8.5,4.4-12.6,2.3-15c-2.1-2.3-5.5-0.1-8-2.5c-2.9-2.8-1.5-8.9-0.3-14c2.3-9.7,5.3-10.9,4.3-14.3
		C99.3,10.4,84,6.2,78,11.1c-2.5,2-2.7,5-6.5,7.3c-2.6,1.5-5.3,1.8-7.3,1.8h-0.1c-1.9,0-4.6-0.2-7.3-1.8c-3.8-2.2-4-5.2-6.5-7.3
		c-6-4.9-21.3-0.7-23.4,6.3c-1,3.4,2,4.6,4.3,14.3c1.2,5.1,2.7,11.2-0.3,14c-2.5,2.4-5.9,0.2-8,2.5c-2.2,2.4,0.1,6.5,2.3,15
		c1.9,7.5,3.7,14.1,2.8,21.6c-0.7,5.6-2,5.2-3.9,14.1c-1.9,9-3,14.5-0.3,17.4c2.6,2.7,7.1,1.3,16.1,0.3c5.8-0.7,14.1-1.2,24.4-0.5
		H64z"/>
	<path class="st1" d="M64.3,49.7L64.3,49.7c-2.2,0-4.1-1.8-4.1-4.1v-9.7c0-2.2,1.8-4.1,4.1-4.1h0c2.2,0,4.1,1.8,4.1,4.1v9.7
		C68.3,47.8,66.5,49.7,64.3,49.7z"/>
	<path class="st1" d="M64.4,72.3L64.4,72.3c-2.2,0-4.1-1.8-4.1-4.1v-9.7c0-2.2,1.8-4.1,4.1-4.1h0c2.2,0,4.1,1.8,4.1,4.1v9.7
		C68.5,70.5,66.6,72.3,64.4,72.3z"/>
	<path class="st1" d="M64.4,96.2L64.4,96.2c-2.2,0-4.1-1.8-4.1-4.1v-9.7c0-2.2,1.8-4.1,4.1-4.1h0c2.2,0,4.1,1.8,4.1,4.1v9.7
		C68.5,94.3,66.6,96.2,64.4,96.2z"/>
</g>
</svg>
